<svg viewBox="0 0 722.3636363636364 524.5360000000001" xmlns:xlink="http://www.w3.org/1999/xlink" xmlns="http://www.w3.org/2000/svg" style="max-height: 500px" width="722.3636363636364" height="524.5360000000001">
<title/>
<desc>Picture generated by wxSVG v0101</desc>

<g style="fill:black; stroke:black; stroke-width:1">
</g>
<g transform="translate(0 0) scale(1.00 1.00)" style="stroke-width:1; stroke-linecap:round; stroke-linejoin:round; fill:#FFFFFF; fill-opacity:1.00; stroke:#000000; stroke-opacity:0.0;">
  <rect shape-rendering="auto" rx="0.00" height="692" width="959" y="0" x="0"/>
</g>
<g transform="translate(0 0) scale(1.00 1.00)" style="stroke-width:1; stroke-linecap:round; stroke-linejoin:round; fill:#FFFFFF; fill-opacity:1.00; stroke:#000000; stroke-opacity:1.00;">
</g>
<g transform="translate(-199 -48) scale(1.00 1.00)" style="stroke-width:1; stroke-linecap:round; stroke-linejoin:round; fill:#000000; fill-opacity:0.0; stroke:#0000FF; stroke-opacity:1.00;">
  <path shape-rendering="auto" d="M602 100 L579 157"/>
</g>
<g transform="translate(-199 -48) scale(1.00 1.00)" style="stroke-width:1; stroke-linecap:round; stroke-linejoin:round; fill:#0000FF; fill-opacity:1.00; stroke:#0000FF; stroke-opacity:1.00;">
  <polygon style="fill-rule:evenodd;" shape-rendering="auto" points="574 170 582 158 575 155 574 170"/>
</g>
<g transform="translate(-199 -48) scale(1.00 1.00)" style="stroke-width:1; stroke-linecap:round; stroke-linejoin:round; fill:#000000; fill-opacity:0.0; stroke:#0000FF; stroke-opacity:1.00;">
  <path shape-rendering="auto" d="M558 222 L526 326"/>
</g>
<g transform="translate(-199 -48) scale(1.00 1.00)" style="stroke-width:1; stroke-linecap:round; stroke-linejoin:round; fill:#0000FF; fill-opacity:1.00; stroke:#0000FF; stroke-opacity:1.00;">
  <polygon style="fill-rule:evenodd;" shape-rendering="auto" points="522 340 529 327 522 325 522 340"/>
</g>
<g transform="translate(-199 -48) scale(1.00 1.00)" style="stroke-width:1; stroke-linecap:round; stroke-linejoin:round; fill:#000000; fill-opacity:0.0; stroke:#0000FF; stroke-opacity:1.00;">
  <path shape-rendering="auto" d="M565 88 L495 109"/>
</g>
<g transform="translate(-199 -48) scale(1.00 1.00)" style="stroke-width:1; stroke-linecap:round; stroke-linejoin:round; fill:#0000FF; fill-opacity:1.00; stroke:#0000FF; stroke-opacity:1.00;">
  <polygon style="fill-rule:evenodd;" shape-rendering="auto" points="482 114 496 113 494 105 482 114"/>
</g>
<g transform="translate(-199 -48) scale(1.00 1.00)" style="stroke-width:1; stroke-linecap:round; stroke-linejoin:round; fill:#000000; fill-opacity:0.0; stroke:#0000FF; stroke-opacity:1.00;">
  <path shape-rendering="auto" d="M370 157 L313 183"/>
</g>
<g transform="translate(-199 -48) scale(1.00 1.00)" style="stroke-width:1; stroke-linecap:round; stroke-linejoin:round; fill:#0000FF; fill-opacity:1.00; stroke:#0000FF; stroke-opacity:1.00;">
  <polygon style="fill-rule:evenodd;" shape-rendering="auto" points="301 189 315 186 312 179 301 189"/>
</g>
<g transform="translate(-199 -48) scale(1.00 1.00)" style="stroke-width:1; stroke-linecap:round; stroke-linejoin:round; fill:#000000; fill-opacity:0.0; stroke:#0000FF; stroke-opacity:1.00;">
  <path shape-rendering="auto" d="M289 239 L325 262"/>
</g>
<g transform="translate(-199 -48) scale(1.00 1.00)" style="stroke-width:1; stroke-linecap:round; stroke-linejoin:round; fill:#0000FF; fill-opacity:1.00; stroke:#0000FF; stroke-opacity:1.00;">
  <polygon style="fill-rule:evenodd;" shape-rendering="auto" points="337 270 327 259 323 265 337 270"/>
</g>
<g transform="translate(-199 -48) scale(1.00 1.00)" style="stroke-width:1; stroke-linecap:round; stroke-linejoin:round; fill:#000000; fill-opacity:0.0; stroke:#0000FF; stroke-opacity:1.00;">
  <path shape-rendering="auto" d="M428 322 L456 335"/>
</g>
<g transform="translate(-199 -48) scale(1.00 1.00)" style="stroke-width:1; stroke-linecap:round; stroke-linejoin:round; fill:#0000FF; fill-opacity:1.00; stroke:#0000FF; stroke-opacity:1.00;">
  <polygon style="fill-rule:evenodd;" shape-rendering="auto" points="469 342 458 332 454 339 469 342"/>
</g>
<g transform="translate(-199 -48) scale(1.00 1.00)" style="stroke-width:1; stroke-linecap:round; stroke-linejoin:round; fill:#000000; fill-opacity:0.0; stroke:#0000FF; stroke-opacity:1.00;">
  <path shape-rendering="auto" d="M523 392 L530 417"/>
</g>
<g transform="translate(-199 -48) scale(1.00 1.00)" style="stroke-width:1; stroke-linecap:round; stroke-linejoin:round; fill:#0000FF; fill-opacity:1.00; stroke:#0000FF; stroke-opacity:1.00;">
  <polygon style="fill-rule:evenodd;" shape-rendering="auto" points="535 431 534 416 527 418 535 431"/>
</g>
<g transform="translate(-199 -48) scale(1.00 1.00)" style="stroke-width:1; stroke-linecap:round; stroke-linejoin:round; fill:#000000; fill-opacity:0.0; stroke:#0000FF; stroke-opacity:1.00;">
  <path shape-rendering="auto" d="M530 483 L518 502"/>
</g>
<g transform="translate(-199 -48) scale(1.00 1.00)" style="stroke-width:1; stroke-linecap:round; stroke-linejoin:round; fill:#0000FF; fill-opacity:1.00; stroke:#0000FF; stroke-opacity:1.00;">
  <polygon style="fill-rule:evenodd;" shape-rendering="auto" points="511 515 521 505 514 500 511 515"/>
</g>
<g transform="translate(-199 -48) scale(1.00 1.00)" style="stroke-width:1; stroke-linecap:round; stroke-linejoin:round; fill:#000000; fill-opacity:0.0; stroke:#0000FF; stroke-opacity:1.00;">
  <path shape-rendering="auto" d="M746 371 L732 416"/>
</g>
<g transform="translate(-199 -48) scale(1.00 1.00)" style="stroke-width:1; stroke-linecap:round; stroke-linejoin:round; fill:#0000FF; fill-opacity:1.00; stroke:#0000FF; stroke-opacity:1.00;">
  <polygon style="fill-rule:evenodd;" shape-rendering="auto" points="728 430 735 417 728 415 728 430"/>
</g>
<g transform="translate(-199 -48) scale(1.00 1.00)" style="stroke-width:1; stroke-linecap:round; stroke-linejoin:round; fill:#000000; fill-opacity:0.0; stroke:#0000FF; stroke-opacity:1.00;">
  <path shape-rendering="auto" d="M673 474 L556 518"/>
</g>
<g transform="translate(-199 -48) scale(1.00 1.00)" style="stroke-width:1; stroke-linecap:round; stroke-linejoin:round; fill:#0000FF; fill-opacity:1.00; stroke:#0000FF; stroke-opacity:1.00;">
  <polygon style="fill-rule:evenodd;" shape-rendering="auto" points="543 523 557 521 554 514 543 523"/>
</g>
<g transform="translate(-199 -48) scale(1.00 1.00)" style="stroke-width:1; stroke-linecap:round; stroke-linejoin:round; fill:#000000; fill-opacity:0.0; stroke:#0000FF; stroke-opacity:1.00;">
  <path shape-rendering="auto" d="M630 100 L672 158"/>
</g>
<g transform="translate(-199 -48) scale(1.00 1.00)" style="stroke-width:1; stroke-linecap:round; stroke-linejoin:round; fill:#0000FF; fill-opacity:1.00; stroke:#0000FF; stroke-opacity:1.00;">
  <polygon style="fill-rule:evenodd;" shape-rendering="auto" points="681 170 675 156 669 161 681 170"/>
</g>
<g transform="translate(-199 -48) scale(1.00 1.00)" style="stroke-width:1; stroke-linecap:round; stroke-linejoin:round; fill:#000000; fill-opacity:0.0; stroke:#0000FF; stroke-opacity:1.00;">
  <path shape-rendering="auto" d="M710 222 L738 305"/>
</g>
<g transform="translate(-199 -48) scale(1.00 1.00)" style="stroke-width:1; stroke-linecap:round; stroke-linejoin:round; fill:#0000FF; fill-opacity:1.00; stroke:#0000FF; stroke-opacity:1.00;">
  <polygon style="fill-rule:evenodd;" shape-rendering="auto" points="743 319 742 304 734 307 743 319"/>
</g>
<g transform="translate(-199 -48) scale(1.00 1.00)" style="stroke-width:1; stroke-linecap:round; stroke-linejoin:round; fill:#000000; fill-opacity:0.0; stroke:#0000FF; stroke-opacity:1.00;">
  <path shape-rendering="auto" d="M771 319 L844 219"/>
</g>
<g transform="translate(-199 -48) scale(1.00 1.00)" style="stroke-width:1; stroke-linecap:round; stroke-linejoin:round; fill:#0000FF; fill-opacity:1.00; stroke:#0000FF; stroke-opacity:1.00;">
  <polygon style="fill-rule:evenodd;" shape-rendering="auto" points="853 208 841 216 847 221 853 208"/>
</g>
<g transform="translate(-199 -48) scale(1.00 1.00)" style="stroke-width:1; stroke-linecap:round; stroke-linejoin:round; fill:#000000; fill-opacity:0.0; stroke:#0000FF; stroke-opacity:1.00;">
  <path shape-rendering="auto" d="M826 163 L669 98"/>
</g>
<g transform="translate(-199 -48) scale(1.00 1.00)" style="stroke-width:1; stroke-linecap:round; stroke-linejoin:round; fill:#0000FF; fill-opacity:1.00; stroke:#0000FF; stroke-opacity:1.00;">
  <polygon style="fill-rule:evenodd;" shape-rendering="auto" points="657 93 668 102 671 94 657 93"/>
</g>
<g transform="translate(-199 -48) scale(1.00 1.00)" style="stroke-width:1; stroke-linecap:round; stroke-linejoin:round; fill:#000000; fill-opacity:0.0; stroke:#0000FF; stroke-opacity:1.00;">
  <path shape-rendering="auto" d="M253 239 L267 353"/>
</g>
<g transform="translate(-199 -48) scale(1.00 1.00)" style="stroke-width:1; stroke-linecap:round; stroke-linejoin:round; fill:#0000FF; fill-opacity:1.00; stroke:#0000FF; stroke-opacity:1.00;">
  <polygon style="fill-rule:evenodd;" shape-rendering="auto" points="269 367 271 352 263 353 269 367"/>
</g>
<g transform="translate(-199 -48) scale(1.00 1.00)" style="stroke-width:1; stroke-linecap:round; stroke-linejoin:round; fill:#000000; fill-opacity:0.0; stroke:#0000FF; stroke-opacity:1.00;">
  <path shape-rendering="auto" d="M314 421 L445 507"/>
</g>
<g transform="translate(-199 -48) scale(1.00 1.00)" style="stroke-width:1; stroke-linecap:round; stroke-linejoin:round; fill:#0000FF; fill-opacity:1.00; stroke:#0000FF; stroke-opacity:1.00;">
  <polygon style="fill-rule:evenodd;" shape-rendering="auto" points="457 515 447 503 443 510 457 515"/>
</g>
<g transform="translate(-199 -48) scale(1.00 1.00)" style="stroke-width:1; stroke-linecap:round; stroke-linejoin:round; fill:#000000; fill-opacity:0.0; stroke:#0000FF; stroke-opacity:1.00;">
  <rect shape-rendering="auto" rx="0.00" height="52" width="92" y="48" x="565"/>
  <text transform="rotate(0.00 570.00 78.00)" xml:space="preserve" style="font-family:Vensim Sans; font-weight:400; font-style:normal; font-size:8.00pt; text-decoration: none; fill:#0000FF; fill-opacity:1.00; stroke:#0000FF; stroke-opacity:1.00; stroke-width:0; white-space: pre;" textLength="83" y="78.00" x="570.00">Anastasia Settler</text>
  <rect shape-rendering="auto" rx="0.00" height="52" width="102" y="187" x="199"/>
  <text transform="rotate(0.00 203.00 217.00)" xml:space="preserve" style="font-family:Vensim Sans; font-weight:400; font-style:normal; font-size:8.00pt; text-decoration: none; fill:#0000FF; fill-opacity:1.00; stroke:#0000FF; stroke-opacity:1.00; stroke-width:0; white-space: pre;" textLength="95" y="217.00" x="203.00">Right-wing esoteric</text>
  <rect shape-rendering="auto" rx="0.00" height="52" width="92" y="340" x="469"/>
  <text transform="rotate(0.00 482.00 370.00)" xml:space="preserve" style="font-family:Vensim Sans; font-weight:400; font-style:normal; font-size:8.00pt; text-decoration: none; fill:#0000FF; fill-opacity:1.00; stroke:#0000FF; stroke-opacity:1.00; stroke-width:0; white-space: pre;" textLength="67" y="370.00" x="482.00">Conspiracists</text>
  <rect shape-rendering="auto" rx="0.00" height="52" width="106" y="319" x="700"/>
  <text transform="rotate(0.00 703.00 341.00)" xml:space="preserve" style="font-family:Vensim Sans; font-weight:400; font-style:normal; font-size:8.00pt; text-decoration: none; fill:#0000FF; fill-opacity:1.00; stroke:#0000FF; stroke-opacity:1.00; stroke-width:0; white-space: pre;" textLength="101" y="341.00" x="703.00">Citizens of the Reich</text>
  <text transform="rotate(0.00 717.00 356.00)" xml:space="preserve" style="font-family:Vensim Sans; font-weight:400; font-style:normal; font-size:8.00pt; text-decoration: none; fill:#0000FF; fill-opacity:1.00; stroke:#0000FF; stroke-opacity:1.00; stroke-width:0; white-space: pre;" textLength="72" y="356.00" x="717.00">(Reichsbürger)</text>
  <rect shape-rendering="auto" rx="0.00" height="52" width="92" y="515" x="451"/>
  <text transform="rotate(0.00 484.00 545.00)" xml:space="preserve" style="font-family:Vensim Sans; font-weight:400; font-style:normal; font-size:8.00pt; text-decoration: none; fill:#0000FF; fill-opacity:1.00; stroke:#0000FF; stroke-opacity:1.00; stroke-width:0; white-space: pre;" textLength="27" y="545.00" x="484.00">Nazis</text>
</g>
<g transform="translate(-199 -48) scale(1.00 1.00)" style="stroke-width:1; stroke-linecap:round; stroke-linejoin:round; fill:#000000; fill-opacity:0.0; stroke:#000000; stroke-opacity:0.0;">
  <rect shape-rendering="auto" rx="0.00" height="52" width="94" y="170" x="518"/>
  <text transform="rotate(0.00 522.00 200.00)" xml:space="preserve" style="font-family:Vensim Sans; font-weight:400; font-style:normal; font-size:8.00pt; text-decoration: none; fill:#0000FF; fill-opacity:1.00; stroke:#0000FF; stroke-opacity:1.00; stroke-width:0; white-space: pre;" textLength="86" y="200.00" x="522.00">nature mysticism</text>
</g>
<g transform="translate(-199 -48) scale(1.00 1.00)" style="stroke-width:1; stroke-linecap:round; stroke-linejoin:round; fill:#000000; fill-opacity:0.0; stroke:#000000; stroke-opacity:0.0;">
  <rect shape-rendering="auto" rx="0.00" height="52" width="112" y="106" x="370"/>
  <text transform="rotate(0.00 374.00 128.00)" xml:space="preserve" style="font-family:Vensim Sans; font-weight:400; font-style:normal; font-size:8.00pt; text-decoration: none; fill:#0000FF; fill-opacity:1.00; stroke:#0000FF; stroke-opacity:1.00; stroke-width:0; white-space: pre;" textLength="105" y="128.00" x="374.00">spiritual purity, slavic</text>
  <text transform="rotate(0.00 413.00 143.00)" xml:space="preserve" style="font-family:Vensim Sans; font-weight:400; font-style:normal; font-size:8.00pt; text-decoration: none; fill:#0000FF; fill-opacity:1.00; stroke:#0000FF; stroke-opacity:1.00; stroke-width:0; white-space: pre;" textLength="27" y="143.00" x="413.00">roots</text>
</g>
<g transform="translate(-199 -48) scale(1.00 1.00)" style="stroke-width:1; stroke-linecap:round; stroke-linejoin:round; fill:#000000; fill-opacity:0.0; stroke:#000000; stroke-opacity:0.0;">
  <rect shape-rendering="auto" rx="0.00" height="52" width="110" y="270" x="322"/>
  <text transform="rotate(0.00 325.00 300.00)" xml:space="preserve" style="font-family:Vensim Sans; font-weight:400; font-style:normal; font-size:8.00pt; text-decoration: none; fill:#0000FF; fill-opacity:1.00; stroke:#0000FF; stroke-opacity:1.00; stroke-width:0; white-space: pre;" textLength="104" y="300.00" x="325.00">cosmic war narrative</text>
</g>
<g transform="translate(-199 -48) scale(1.00 1.00)" style="stroke-width:1; stroke-linecap:round; stroke-linejoin:round; fill:#000000; fill-opacity:0.0; stroke:#000000; stroke-opacity:0.0;">
  <rect shape-rendering="auto" rx="0.00" height="52" width="92" y="431" x="498"/>
  <text transform="rotate(0.00 509.00 461.00)" xml:space="preserve" style="font-family:Vensim Sans; font-weight:400; font-style:normal; font-size:8.00pt; text-decoration: none; fill:#0000FF; fill-opacity:1.00; stroke:#0000FF; stroke-opacity:1.00; stroke-width:0; white-space: pre;" textLength="70" y="461.00" x="509.00">anti globalism</text>
</g>
<g transform="translate(-199 -48) scale(1.00 1.00)" style="stroke-width:1; stroke-linecap:round; stroke-linejoin:round; fill:#000000; fill-opacity:0.0; stroke:#000000; stroke-opacity:0.0;">
  <rect shape-rendering="auto" rx="0.00" height="52" width="96" y="430" x="673"/>
  <text transform="rotate(0.00 677.00 460.00)" xml:space="preserve" style="font-family:Vensim Sans; font-weight:400; font-style:normal; font-size:8.00pt; text-decoration: none; fill:#0000FF; fill-opacity:1.00; stroke:#0000FF; stroke-opacity:1.00; stroke-width:0; white-space: pre;" textLength="89" y="460.00" x="677.00">imperial nostalgia</text>
</g>
<g transform="translate(-199 -48) scale(1.00 1.00)" style="stroke-width:1; stroke-linecap:round; stroke-linejoin:round; fill:#000000; fill-opacity:0.0; stroke:#000000; stroke-opacity:0.0;">
  <rect shape-rendering="auto" rx="0.00" height="52" width="108" y="170" x="647"/>
  <text transform="rotate(0.00 651.00 200.00)" xml:space="preserve" style="font-family:Vensim Sans; font-weight:400; font-style:normal; font-size:8.00pt; text-decoration: none; fill:#0000FF; fill-opacity:1.00; stroke:#0000FF; stroke-opacity:1.00; stroke-width:0; white-space: pre;" textLength="101" y="200.00" x="651.00">esoteric nationalism</text>
</g>
<g transform="translate(-199 -48) scale(1.00 1.00)" style="stroke-width:1; stroke-linecap:round; stroke-linejoin:round; fill:#000000; fill-opacity:0.0; stroke:#000000; stroke-opacity:0.0;">
  <rect shape-rendering="auto" rx="0.00" height="52" width="92" y="156" x="826"/>
  <text transform="rotate(0.00 832.00 186.00)" xml:space="preserve" style="font-family:Vensim Sans; font-weight:400; font-style:normal; font-size:8.00pt; text-decoration: none; fill:#0000FF; fill-opacity:1.00; stroke:#0000FF; stroke-opacity:1.00; stroke-width:0; white-space: pre;" textLength="80" y="186.00" x="832.00">anti modernism</text>
</g>
<g transform="translate(-199 -48) scale(1.00 1.00)" style="stroke-width:1; stroke-linecap:round; stroke-linejoin:round; fill:#000000; fill-opacity:0.0; stroke:#000000; stroke-opacity:0.0;">
  <rect shape-rendering="auto" rx="0.00" height="54" width="108" y="367" x="219"/>
  <text transform="rotate(0.00 222.00 383.00)" xml:space="preserve" style="font-family:Vensim Sans; font-weight:400; font-style:normal; font-size:8.00pt; text-decoration: none; fill:#0000FF; fill-opacity:1.00; stroke:#0000FF; stroke-opacity:1.00; stroke-width:0; white-space: pre;" textLength="103" y="383.00" x="222.00">occult fascism, racial</text>
  <text transform="rotate(0.00 225.00 398.00)" xml:space="preserve" style="font-family:Vensim Sans; font-weight:400; font-style:normal; font-size:8.00pt; text-decoration: none; fill:#0000FF; fill-opacity:1.00; stroke:#0000FF; stroke-opacity:1.00; stroke-width:0; white-space: pre;" textLength="97" y="398.00" x="225.00">myths, government</text>
  <text transform="rotate(0.00 254.00 413.00)" xml:space="preserve" style="font-family:Vensim Sans; font-weight:400; font-style:normal; font-size:8.00pt; text-decoration: none; fill:#0000FF; fill-opacity:1.00; stroke:#0000FF; stroke-opacity:1.00; stroke-width:0; white-space: pre;" textLength="38" y="413.00" x="254.00">distrust</text>
</g>
</svg>