<svg viewBox="0 0 781.498 335.92505854800936" xmlns:xlink="http://www.w3.org/1999/xlink" xmlns="http://www.w3.org/2000/svg" style="max-height: 500px" width="781.498" height="335.92505854800936">
<title/>
<desc>Picture generated by wxSVG v0101</desc>

<g style="fill:black; stroke:black; stroke-width:1">
</g>
<g transform="translate(0 0) scale(1.00 1.00)" style="stroke-width:1; stroke-linecap:round; stroke-linejoin:round; fill:#FFFFFF; fill-opacity:1.00; stroke:#000000; stroke-opacity:0.0;">
  <rect shape-rendering="auto" rx="0.00" height="440" width="1031" y="0" x="0"/>
</g>
<g transform="translate(0 0) scale(1.00 1.00)" style="stroke-width:1; stroke-linecap:round; stroke-linejoin:round; fill:#FFFFFF; fill-opacity:1.00; stroke:#000000; stroke-opacity:1.00;">
</g>
<g transform="translate(-94 -126) scale(1.69 1.69)" style="stroke-width:1; stroke-linecap:round; stroke-linejoin:round; fill:#000000; fill-opacity:0.0; stroke:#0000FF; stroke-opacity:1.00;">
  <path shape-rendering="auto" d="M98 95 L142 147"/>
</g>
<g transform="translate(-94 -126) scale(1.69 1.69)" style="stroke-width:1; stroke-linecap:round; stroke-linejoin:round; fill:#0000FF; fill-opacity:1.00; stroke:#0000FF; stroke-opacity:1.00;">
  <polygon style="fill-rule:evenodd;" shape-rendering="auto" points="152 158 145 144 139 149 152 158"/>
</g>
<g transform="translate(-94 -126) scale(1.69 1.69)" style="stroke-width:1; stroke-linecap:round; stroke-linejoin:round; fill:#000000; fill-opacity:0.0; stroke:#0000FF; stroke-opacity:1.00;">
  <path shape-rendering="auto" d="M279.42 135.75 A66.00 66.00 0 0 0 162.31 144.05"/>
</g>
<g transform="translate(-94 -126) scale(1.69 1.69)" style="stroke-width:1; stroke-linecap:round; stroke-linejoin:round; fill:#0000FF; fill-opacity:1.00; stroke:#0000FF; stroke-opacity:1.00;">
  <polygon style="fill-rule:evenodd;" shape-rendering="auto" points="159 157 166 145 159 143 159 157"/>
</g>
<g transform="translate(-94 -126) scale(1.69 1.69)" style="stroke-width:1; stroke-linecap:round; stroke-linejoin:round; fill:#000000; fill-opacity:0.0; stroke:#0000FF; stroke-opacity:1.00;">
  <path shape-rendering="auto" d="M161.02 169.80 A174.00 174.00 0 0 0 395.23 202.93"/>
</g>
<g transform="translate(-94 -126) scale(1.69 1.69)" style="stroke-width:1; stroke-linecap:round; stroke-linejoin:round; fill:#0000FF; fill-opacity:1.00; stroke:#0000FF; stroke-opacity:1.00;">
  <polygon style="fill-rule:evenodd;" shape-rendering="auto" points="406 194 392 199 397 206 406 194"/>
</g>
<g transform="translate(-94 -126) scale(1.69 1.69)" style="stroke-width:1; stroke-linecap:round; stroke-linejoin:round; fill:#000000; fill-opacity:0.0; stroke:#0000FF; stroke-opacity:1.00;">
  <path shape-rendering="auto" d="M469 99 L430 145"/>
</g>
<g transform="translate(-94 -126) scale(1.69 1.69)" style="stroke-width:1; stroke-linecap:round; stroke-linejoin:round; fill:#0000FF; fill-opacity:1.00; stroke:#0000FF; stroke-opacity:1.00;">
  <polygon style="fill-rule:evenodd;" shape-rendering="auto" points="421 156 433 147 426 142 421 156"/>
</g>
<g transform="translate(-94 -126) scale(1.69 1.69)" style="stroke-width:1; stroke-linecap:round; stroke-linejoin:round; fill:#000000; fill-opacity:0.0; stroke:#000000; stroke-opacity:1.00;">
  <rect shape-rendering="auto" rx="0.00" height="52" width="106" y="136" x="236"/>
  <text transform="rotate(0.00 263.00 166.00)" xml:space="preserve" style="font-family:Times New Roman; font-weight:400; font-style:normal; font-size:9.00pt; text-decoration: none; fill:#000000; fill-opacity:1.00; stroke:#000000; stroke-opacity:1.00; stroke-width:0; white-space: pre;" textLength="53" y="166.00" x="263.00">Population</text>
</g>
<g transform="translate(-94 -126) scale(1.69 1.69)" style="stroke-width:1; stroke-linecap:round; stroke-linejoin:round; fill:#000000; fill-opacity:0.0; stroke:#000000; stroke-opacity:1.00;">
  <path shape-rendering="auto" style="fill:none" d="M 63.00 157.00 L 64.50 157.00 C 65.50 157.00, 66.33 157.33, 67.00 158.00 C 67.67 158.67, 68.83 159.00, 70.50 159.00 C 72.17 159.00, 73.17 159.17, 73.50 159.50 C 73.83 159.83, 74.33 160.17, 75.00 160.50 C 75.67 160.83, 76.00 161.33, 76.00 162.00 C 76.00 162.67, 76.00 163.67, 76.00 165.00 C 76.00 166.33, 75.83 167.33, 75.50 168.00 C 75.17 168.67, 74.50 169.50, 73.50 170.50 C 72.50 171.50, 71.67 172.00, 71.00 172.00 C 70.33 172.00, 69.50 171.50, 68.50 170.50 C 67.50 169.50, 66.67 169.00, 66.00 169.00 C 65.33 169.00, 64.67 169.33, 64.00 170.00 C 63.33 170.67, 62.33 170.50, 61.00 169.50 C 59.67 168.50, 59.00 167.83, 59.00 167.50 C 59.00 167.17, 58.83 166.83, 58.50 166.50 C 58.17 166.17, 58.00 165.83, 58.00 165.50 C 58.00 165.17, 57.83 164.83, 57.50 164.50 C 57.17 164.17, 57.00 163.50, 57.00 162.50 C 57.00 161.50, 57.17 160.83, 57.50 160.50 C 57.83 160.17, 58.33 160.00, 59.00 160.00 C 59.67 160.00, 60.50 159.50, 61.50 158.50 L 63.00 157.00"/>
</g>
<g transform="translate(-94 -126) scale(1.69 1.69)" style="stroke-width:1; stroke-linecap:round; stroke-linejoin:round; fill:#000000; fill-opacity:0.0; stroke:#000000; stroke-opacity:0.0;">
  <rect shape-rendering="auto" rx="0.00" height="20" width="44" y="175" x="135"/>
  <text transform="rotate(0.00 142.00 189.00)" xml:space="preserve" style="font-family:Times New Roman; font-weight:400; font-style:normal; font-size:9.00pt; text-decoration: none; fill:#000000; fill-opacity:1.00; stroke:#000000; stroke-opacity:1.00; stroke-width:0; white-space: pre;" textLength="30" y="189.00" x="142.00">Births</text>
</g>
<g transform="translate(-94 -126) scale(1.69 1.69)" style="stroke-width:1; stroke-linecap:round; stroke-linejoin:round; fill:#000000; fill-opacity:0.0; stroke:#000000; stroke-opacity:1.00;">
  <path shape-rendering="auto" style="fill:none" d="M 502.00 155.00 L 503.50 155.00 C 504.50 155.00, 505.33 155.33, 506.00 156.00 C 506.67 156.67, 507.83 157.00, 509.50 157.00 C 511.17 157.00, 512.17 157.17, 512.50 157.50 C 512.83 157.83, 513.33 158.17, 514.00 158.50 C 514.67 158.83, 515.00 159.33, 515.00 160.00 C 515.00 160.67, 515.00 161.67, 515.00 163.00 C 515.00 164.33, 514.83 165.33, 514.50 166.00 C 514.17 166.67, 513.50 167.50, 512.50 168.50 C 511.50 169.50, 510.67 170.00, 510.00 170.00 C 509.33 170.00, 508.50 169.50, 507.50 168.50 C 506.50 167.50, 505.67 167.00, 505.00 167.00 C 504.33 167.00, 503.67 167.33, 503.00 168.00 C 502.33 168.67, 501.33 168.50, 500.00 167.50 C 498.67 166.50, 498.00 165.83, 498.00 165.50 C 498.00 165.17, 497.83 164.83, 497.50 164.50 C 497.17 164.17, 497.00 163.83, 497.00 163.50 C 497.00 163.17, 496.83 162.83, 496.50 162.50 C 496.17 162.17, 496.00 161.50, 496.00 160.50 C 496.00 159.50, 496.17 158.83, 496.50 158.50 C 496.83 158.17, 497.33 158.00, 498.00 158.00 C 498.67 158.00, 499.50 157.50, 500.50 156.50 L 502.00 155.00"/>
</g>
<g transform="translate(-94 -126) scale(1.69 1.69)" style="stroke-width:1; stroke-linecap:round; stroke-linejoin:round; fill:#000000; fill-opacity:0.0; stroke:#000000; stroke-opacity:0.0;">
  <rect shape-rendering="auto" rx="0.00" height="20" width="50" y="174" x="392"/>
  <text transform="rotate(0.00 400.00 188.00)" xml:space="preserve" style="font-family:Times New Roman; font-weight:400; font-style:normal; font-size:9.00pt; text-decoration: none; fill:#000000; fill-opacity:1.00; stroke:#000000; stroke-opacity:1.00; stroke-width:0; white-space: pre;" textLength="34" y="188.00" x="400.00">Deaths</text>
</g>
<g transform="translate(-94 -126) scale(1.69 1.69)" style="stroke-width:1; stroke-linecap:round; stroke-linejoin:round; fill:#000000; fill-opacity:0.0; stroke:#000000; stroke-opacity:0.0;">
  <rect shape-rendering="auto" rx="0.00" height="20" width="62" y="75" x="59"/>
  <text transform="rotate(0.00 69.00 89.00)" xml:space="preserve" style="font-family:Times New Roman; font-weight:400; font-style:normal; font-size:9.00pt; text-decoration: none; fill:#000000; fill-opacity:1.00; stroke:#000000; stroke-opacity:1.00; stroke-width:0; white-space: pre;" textLength="43" y="89.00" x="69.00">Birthrate</text>
</g>
<g transform="translate(-94 -126) scale(1.69 1.69)" style="stroke-width:1; stroke-linecap:round; stroke-linejoin:round; fill:#000000; fill-opacity:0.0; stroke:#000000; stroke-opacity:0.0;">
  <rect shape-rendering="auto" rx="0.00" height="20" width="60" y="79" x="447"/>
  <text transform="rotate(0.00 456.00 93.00)" xml:space="preserve" style="font-family:Times New Roman; font-weight:400; font-style:normal; font-size:9.00pt; text-decoration: none; fill:#000000; fill-opacity:1.00; stroke:#000000; stroke-opacity:1.00; stroke-width:0; white-space: pre;" textLength="42" y="93.00" x="456.00">Lifespan</text>
</g>
<g transform="translate(-94 -126) scale(1.69 1.69)" style="stroke-width:1; stroke-linecap:round; stroke-linejoin:round; fill:#000000; fill-opacity:0.0; stroke:#000000; stroke-opacity:0.0;">
  <rect shape-rendering="auto" rx="0.00" height="20" width="116" y="251" x="226"/>
  <text transform="rotate(0.00 242.00 265.00)" xml:space="preserve" style="font-family:Times New Roman; font-weight:400; font-style:normal; font-size:9.00pt; text-decoration: none; fill:#000000; fill-opacity:1.00; stroke:#000000; stroke-opacity:1.00; stroke-width:0; white-space: pre;" textLength="84" y="265.00" x="242.00">Initial Population</text>
</g>
<g transform="translate(-94 -126) scale(1.69 1.69)" style="stroke-width:1; stroke-linecap:round; stroke-linejoin:round; fill:#000000; fill-opacity:0.0; stroke:#000000; stroke-opacity:1.00;">
  <path shape-rendering="auto" d="M157 162 L215 162"/>
  <path shape-rendering="auto" d="M215 166 L157 166"/>
</g>
<g transform="translate(-94 -126) scale(1.69 1.69)" style="stroke-width:1; stroke-linecap:round; stroke-linejoin:round; fill:#000000; fill-opacity:1.00; stroke:#000000; stroke-opacity:1.00;">
  <polygon style="fill-rule:evenodd;" shape-rendering="auto" points="236 164 215 158 215 170 236 164"/>
</g>
<g transform="translate(-94 -126) scale(1.69 1.69)" style="stroke-width:1; stroke-linecap:round; stroke-linejoin:round; fill:#000000; fill-opacity:0.0; stroke:#000000; stroke-opacity:1.00;">
  <path shape-rendering="auto" d="M157 166 L76 166"/>
  <path shape-rendering="auto" d="M76 162 L157 162"/>
</g>
<g transform="translate(-94 -126) scale(1.69 1.69)" style="stroke-width:1; stroke-linecap:round; stroke-linejoin:round; fill:#000000; fill-opacity:0.0; stroke:#000000; stroke-opacity:1.00;">
  <path shape-rendering="auto" d="M417 160 L474 160"/>
  <path shape-rendering="auto" d="M474 164 L417 164"/>
</g>
<g transform="translate(-94 -126) scale(1.69 1.69)" style="stroke-width:1; stroke-linecap:round; stroke-linejoin:round; fill:#000000; fill-opacity:1.00; stroke:#000000; stroke-opacity:1.00;">
  <polygon style="fill-rule:evenodd;" shape-rendering="auto" points="495 162 474 156 474 168 495 162"/>
</g>
<g transform="translate(-94 -126) scale(1.69 1.69)" style="stroke-width:1; stroke-linecap:round; stroke-linejoin:round; fill:#000000; fill-opacity:0.0; stroke:#000000; stroke-opacity:1.00;">
  <path shape-rendering="auto" d="M417 164 L342 164"/>
  <path shape-rendering="auto" d="M342 160 L417 160"/>
</g>
<g transform="translate(-94 -126) scale(1.69 1.69)" style="stroke-width:1; stroke-linecap:round; stroke-linejoin:round; fill:#000000; fill-opacity:0.0; stroke:#000000; stroke-opacity:1.00;">
  <path shape-rendering="auto" d="M150 154 L164 174"/>
  <path shape-rendering="auto" d="M164 174 L150 174"/>
  <path shape-rendering="auto" d="M150 174 L164 154"/>
  <path shape-rendering="auto" d="M164 154 L150 154"/>
  <path shape-rendering="auto" d="M410 152 L424 172"/>
  <path shape-rendering="auto" d="M424 172 L410 172"/>
  <path shape-rendering="auto" d="M410 172 L424 152"/>
  <path shape-rendering="auto" d="M424 152 L410 152"/>
</g>
</svg>