<?xml version="1.0" encoding="UTF-8" standalone="no"?>
<!DOCTYPE svg PUBLIC "-//W3C//DTD SVG 1.0//EN" "http://www.w3.org/TR/2001/REC-SVG-20010904/DTD/svg10.dtd">

<svg xmlns="http://www.w3.org/2000/svg" xmlns:xlink="http://www.w3.org/1999/xlink" width="27.27cm" height="11.64cm" viewBox="0 0 1031 440">
<title></title>
<desc>Picture generated by wxSVG v0101</desc>

<g style="fill:black; stroke:black; stroke-width:1">
</g>
<g style="stroke-width:1; stroke-linecap:round; stroke-linejoin:round; fill:#FFFFFF; fill-opacity:1.00; stroke:#000000; stroke-opacity:0.0;" transform="translate(0 0) scale(1.00 1.00)">
  <rect x="0" y="0" width="1031" height="440" rx="0.00" shape-rendering="auto"  />
</g>
<g style="stroke-width:1; stroke-linecap:round; stroke-linejoin:round; fill:#FFFFFF; fill-opacity:1.00; stroke:#000000; stroke-opacity:1.00;" transform="translate(0 0) scale(1.00 1.00)">
</g>
<g style="stroke-width:1; stroke-linecap:round; stroke-linejoin:round; fill:#000000; fill-opacity:0.0; stroke:#0000FF; stroke-opacity:1.00;" transform="translate(-703 -472) scale(1.69 1.69)">
  <path d="M459 300 L503 352" shape-rendering="auto" />
</g>
<g style="stroke-width:1; stroke-linecap:round; stroke-linejoin:round; fill:#0000FF; fill-opacity:1.00; stroke:#0000FF; stroke-opacity:1.00;" transform="translate(-703 -472) scale(1.69 1.69)">
  <polygon points="513 363 506 349 500 354 513 363 " shape-rendering="auto"   style="fill-rule:evenodd;"/>
</g>
<g style="stroke-width:1; stroke-linecap:round; stroke-linejoin:round; fill:#000000; fill-opacity:0.0; stroke:#0000FF; stroke-opacity:1.00;" transform="translate(-703 -472) scale(1.69 1.69)">
  <path d="M640.42 340.75 A66.00 66.00 0 0 0 523.31 349.05" shape-rendering="auto" />
</g>
<g style="stroke-width:1; stroke-linecap:round; stroke-linejoin:round; fill:#0000FF; fill-opacity:1.00; stroke:#0000FF; stroke-opacity:1.00;" transform="translate(-703 -472) scale(1.69 1.69)">
  <polygon points="520 362 527 350 520 348 520 362 " shape-rendering="auto"   style="fill-rule:evenodd;"/>
</g>
<g style="stroke-width:1; stroke-linecap:round; stroke-linejoin:round; fill:#000000; fill-opacity:0.0; stroke:#0000FF; stroke-opacity:1.00;" transform="translate(-703 -472) scale(1.69 1.69)">
  <path d="M522.02 374.80 A174.00 174.00 0 0 0 756.23 407.93" shape-rendering="auto" />
</g>
<g style="stroke-width:1; stroke-linecap:round; stroke-linejoin:round; fill:#0000FF; fill-opacity:1.00; stroke:#0000FF; stroke-opacity:1.00;" transform="translate(-703 -472) scale(1.69 1.69)">
  <polygon points="767 399 753 404 758 411 767 399 " shape-rendering="auto"   style="fill-rule:evenodd;"/>
</g>
<g style="stroke-width:1; stroke-linecap:round; stroke-linejoin:round; fill:#000000; fill-opacity:0.0; stroke:#0000FF; stroke-opacity:1.00;" transform="translate(-703 -472) scale(1.69 1.69)">
  <path d="M830 304 L791 350" shape-rendering="auto" />
</g>
<g style="stroke-width:1; stroke-linecap:round; stroke-linejoin:round; fill:#0000FF; fill-opacity:1.00; stroke:#0000FF; stroke-opacity:1.00;" transform="translate(-703 -472) scale(1.69 1.69)">
  <polygon points="782 361 794 352 787 347 782 361 " shape-rendering="auto"   style="fill-rule:evenodd;"/>
</g>
<g style="stroke-width:1; stroke-linecap:round; stroke-linejoin:round; fill:#000000; fill-opacity:0.0; stroke:#000000; stroke-opacity:1.00;" transform="translate(-703 -472) scale(1.69 1.69)">
  <rect x="597" y="341" width="106" height="52" rx="0.00" shape-rendering="auto"  />
  <text x="624.00" y="371.00" textLength="53" style="font-family:Times New Roman; font-weight:400; font-style:normal; font-size:9.00pt; text-decoration: none; fill:#000000; fill-opacity:1.00; stroke:#000000; stroke-opacity:1.00; stroke-width:0; white-space: pre;" xml:space="preserve" transform="rotate(0.00 624.00 371.00)">Population</text>
</g>
<g style="stroke-width:1; stroke-linecap:round; stroke-linejoin:round; fill:#000000; fill-opacity:0.0; stroke:#000000; stroke-opacity:1.00;" transform="translate(-703 -472) scale(1.69 1.69)">
  <path d="M 424.00 362.00 L 425.50 362.00 C 426.50 362.00, 427.33 362.33, 428.00 363.00 C 428.67 363.67, 429.83 364.00, 431.50 364.00 C 433.17 364.00, 434.17 364.17, 434.50 364.50 C 434.83 364.83, 435.33 365.17, 436.00 365.50 C 436.67 365.83, 437.00 366.33, 437.00 367.00 C 437.00 367.67, 437.00 368.67, 437.00 370.00 C 437.00 371.33, 436.83 372.33, 436.50 373.00 C 436.17 373.67, 435.50 374.50, 434.50 375.50 C 433.50 376.50, 432.67 377.00, 432.00 377.00 C 431.33 377.00, 430.50 376.50, 429.50 375.50 C 428.50 374.50, 427.67 374.00, 427.00 374.00 C 426.33 374.00, 425.67 374.33, 425.00 375.00 C 424.33 375.67, 423.33 375.50, 422.00 374.50 C 420.67 373.50, 420.00 372.83, 420.00 372.50 C 420.00 372.17, 419.83 371.83, 419.50 371.50 C 419.17 371.17, 419.00 370.83, 419.00 370.50 C 419.00 370.17, 418.83 369.83, 418.50 369.50 C 418.17 369.17, 418.00 368.50, 418.00 367.50 C 418.00 366.50, 418.17 365.83, 418.50 365.50 C 418.83 365.17, 419.33 365.00, 420.00 365.00 C 420.67 365.00, 421.50 364.50, 422.50 363.50 L 424.00 362.00" style="fill:none" shape-rendering="auto" />
</g>
<g style="stroke-width:1; stroke-linecap:round; stroke-linejoin:round; fill:#000000; fill-opacity:0.0; stroke:#000000; stroke-opacity:0.0;" transform="translate(-703 -472) scale(1.69 1.69)">
  <rect x="496" y="380" width="44" height="20" rx="0.00" shape-rendering="auto"  />
  <text x="503.00" y="394.00" textLength="30" style="font-family:Times New Roman; font-weight:400; font-style:normal; font-size:9.00pt; text-decoration: none; fill:#000000; fill-opacity:1.00; stroke:#000000; stroke-opacity:1.00; stroke-width:0; white-space: pre;" xml:space="preserve" transform="rotate(0.00 503.00 394.00)">Births</text>
</g>
<g style="stroke-width:1; stroke-linecap:round; stroke-linejoin:round; fill:#000000; fill-opacity:0.0; stroke:#000000; stroke-opacity:1.00;" transform="translate(-703 -472) scale(1.69 1.69)">
  <path d="M 863.00 360.00 L 864.50 360.00 C 865.50 360.00, 866.33 360.33, 867.00 361.00 C 867.67 361.67, 868.83 362.00, 870.50 362.00 C 872.17 362.00, 873.17 362.17, 873.50 362.50 C 873.83 362.83, 874.33 363.17, 875.00 363.50 C 875.67 363.83, 876.00 364.33, 876.00 365.00 C 876.00 365.67, 876.00 366.67, 876.00 368.00 C 876.00 369.33, 875.83 370.33, 875.50 371.00 C 875.17 371.67, 874.50 372.50, 873.50 373.50 C 872.50 374.50, 871.67 375.00, 871.00 375.00 C 870.33 375.00, 869.50 374.50, 868.50 373.50 C 867.50 372.50, 866.67 372.00, 866.00 372.00 C 865.33 372.00, 864.67 372.33, 864.00 373.00 C 863.33 373.67, 862.33 373.50, 861.00 372.50 C 859.67 371.50, 859.00 370.83, 859.00 370.50 C 859.00 370.17, 858.83 369.83, 858.50 369.50 C 858.17 369.17, 858.00 368.83, 858.00 368.50 C 858.00 368.17, 857.83 367.83, 857.50 367.50 C 857.17 367.17, 857.00 366.50, 857.00 365.50 C 857.00 364.50, 857.17 363.83, 857.50 363.50 C 857.83 363.17, 858.33 363.00, 859.00 363.00 C 859.67 363.00, 860.50 362.50, 861.50 361.50 L 863.00 360.00" style="fill:none" shape-rendering="auto" />
</g>
<g style="stroke-width:1; stroke-linecap:round; stroke-linejoin:round; fill:#000000; fill-opacity:0.0; stroke:#000000; stroke-opacity:0.0;" transform="translate(-703 -472) scale(1.69 1.69)">
  <rect x="753" y="379" width="50" height="20" rx="0.00" shape-rendering="auto"  />
  <text x="761.00" y="393.00" textLength="34" style="font-family:Times New Roman; font-weight:400; font-style:normal; font-size:9.00pt; text-decoration: none; fill:#000000; fill-opacity:1.00; stroke:#000000; stroke-opacity:1.00; stroke-width:0; white-space: pre;" xml:space="preserve" transform="rotate(0.00 761.00 393.00)">Deaths</text>
</g>
<g style="stroke-width:1; stroke-linecap:round; stroke-linejoin:round; fill:#000000; fill-opacity:0.0; stroke:#000000; stroke-opacity:0.0;" transform="translate(-703 -472) scale(1.69 1.69)">
  <rect x="420" y="280" width="62" height="20" rx="0.00" shape-rendering="auto"  />
  <text x="430.00" y="294.00" textLength="43" style="font-family:Times New Roman; font-weight:400; font-style:normal; font-size:9.00pt; text-decoration: none; fill:#000000; fill-opacity:1.00; stroke:#000000; stroke-opacity:1.00; stroke-width:0; white-space: pre;" xml:space="preserve" transform="rotate(0.00 430.00 294.00)">Birthrate</text>
</g>
<g style="stroke-width:1; stroke-linecap:round; stroke-linejoin:round; fill:#000000; fill-opacity:0.0; stroke:#000000; stroke-opacity:0.0;" transform="translate(-703 -472) scale(1.69 1.69)">
  <rect x="808" y="284" width="60" height="20" rx="0.00" shape-rendering="auto"  />
  <text x="817.00" y="298.00" textLength="42" style="font-family:Times New Roman; font-weight:400; font-style:normal; font-size:9.00pt; text-decoration: none; fill:#000000; fill-opacity:1.00; stroke:#000000; stroke-opacity:1.00; stroke-width:0; white-space: pre;" xml:space="preserve" transform="rotate(0.00 817.00 298.00)">Lifespan</text>
</g>
<g style="stroke-width:1; stroke-linecap:round; stroke-linejoin:round; fill:#000000; fill-opacity:0.0; stroke:#000000; stroke-opacity:0.0;" transform="translate(-703 -472) scale(1.69 1.69)">
  <rect x="587" y="456" width="116" height="20" rx="0.00" shape-rendering="auto"  />
  <text x="603.00" y="470.00" textLength="84" style="font-family:Times New Roman; font-weight:400; font-style:normal; font-size:9.00pt; text-decoration: none; fill:#000000; fill-opacity:1.00; stroke:#000000; stroke-opacity:1.00; stroke-width:0; white-space: pre;" xml:space="preserve" transform="rotate(0.00 603.00 470.00)">Initial Population</text>
</g>
<g style="stroke-width:1; stroke-linecap:round; stroke-linejoin:round; fill:#000000; fill-opacity:0.0; stroke:#000000; stroke-opacity:1.00;" transform="translate(-703 -472) scale(1.69 1.69)">
  <path d="M518 367 L576 367" shape-rendering="auto" />
  <path d="M576 371 L518 371" shape-rendering="auto" />
</g>
<g style="stroke-width:1; stroke-linecap:round; stroke-linejoin:round; fill:#000000; fill-opacity:1.00; stroke:#000000; stroke-opacity:1.00;" transform="translate(-703 -472) scale(1.69 1.69)">
  <polygon points="597 369 576 363 576 375 597 369 " shape-rendering="auto"   style="fill-rule:evenodd;"/>
</g>
<g style="stroke-width:1; stroke-linecap:round; stroke-linejoin:round; fill:#000000; fill-opacity:0.0; stroke:#000000; stroke-opacity:1.00;" transform="translate(-703 -472) scale(1.69 1.69)">
  <path d="M518 371 L437 371" shape-rendering="auto" />
  <path d="M437 367 L518 367" shape-rendering="auto" />
</g>
<g style="stroke-width:1; stroke-linecap:round; stroke-linejoin:round; fill:#000000; fill-opacity:0.0; stroke:#000000; stroke-opacity:1.00;" transform="translate(-703 -472) scale(1.69 1.69)">
  <path d="M778 365 L835 365" shape-rendering="auto" />
  <path d="M835 369 L778 369" shape-rendering="auto" />
</g>
<g style="stroke-width:1; stroke-linecap:round; stroke-linejoin:round; fill:#000000; fill-opacity:1.00; stroke:#000000; stroke-opacity:1.00;" transform="translate(-703 -472) scale(1.69 1.69)">
  <polygon points="856 367 835 361 835 373 856 367 " shape-rendering="auto"   style="fill-rule:evenodd;"/>
</g>
<g style="stroke-width:1; stroke-linecap:round; stroke-linejoin:round; fill:#000000; fill-opacity:0.0; stroke:#000000; stroke-opacity:1.00;" transform="translate(-703 -472) scale(1.69 1.69)">
  <path d="M778 369 L703 369" shape-rendering="auto" />
  <path d="M703 365 L778 365" shape-rendering="auto" />
</g>
<g style="stroke-width:1; stroke-linecap:round; stroke-linejoin:round; fill:#000000; fill-opacity:0.0; stroke:#000000; stroke-opacity:1.00;" transform="translate(-703 -472) scale(1.69 1.69)">
  <path d="M511 359 L525 379" shape-rendering="auto" />
  <path d="M525 379 L511 379" shape-rendering="auto" />
  <path d="M511 379 L525 359" shape-rendering="auto" />
  <path d="M525 359 L511 359" shape-rendering="auto" />
  <path d="M771 357 L785 377" shape-rendering="auto" />
  <path d="M785 377 L771 377" shape-rendering="auto" />
  <path d="M771 377 L785 357" shape-rendering="auto" />
  <path d="M785 357 L771 357" shape-rendering="auto" />
</g>
</svg>
